<svg width="24" height="24" viewBox="0 0 24 24" fill="none" xmlns="http://www.w3.org/2000/svg">
<path d="M3.08898 13.3942L3.82917 13.5152C3.85803 13.3384 3.82272 13.1572 3.72962 13.0043L3.08898 13.3942ZM6.10818 16.191L6.44782 15.5223C6.29236 15.4434 6.11424 15.421 5.94409 15.4592L6.10818 16.191ZM2.5 17L1.75981 16.8791C1.71965 17.125 1.8042 17.3747 1.98545 17.5457C2.1667 17.7166 2.42099 17.7863 2.66408 17.7318L2.5 17ZM21.1288 19.1154L20.4882 18.7254C20.3951 18.8784 20.3598 19.0596 20.3886 19.2363L21.1288 19.1154ZM18.7135 21.3528L18.8775 20.621C18.7074 20.5828 18.5293 20.6052 18.3738 20.6841L18.7135 21.3528ZM21.6 22L21.4359 22.7318C21.679 22.7863 21.9333 22.7166 22.1146 22.5457C22.2958 22.3747 22.3804 22.125 22.3402 21.8791L21.6 22ZM9.49999 12.5L10.0303 11.9697C9.88967 11.829 9.69891 11.75 9.5 11.75C9.30109 11.75 9.11032 11.829 8.96967 11.9697L9.49999 12.5ZM9.74999 12.75L10.2803 13.2803C10.5732 12.9874 10.5732 12.5126 10.2803 12.2197L9.74999 12.75ZM9.49999 13L8.96967 13.5303C9.11032 13.671 9.30109 13.75 9.5 13.75C9.69891 13.75 9.88967 13.671 10.0303 13.5303L9.49999 13ZM9.24999 12.75L8.71966 12.2197C8.57901 12.3603 8.49999 12.5511 8.49999 12.75C8.49999 12.9489 8.57901 13.1397 8.71966 13.2803L9.24999 12.75ZM10.25 6C10.25 5.58579 9.91421 5.25 9.5 5.25C9.08578 5.25 8.75 5.58579 8.75 6L10.25 6ZM8.74999 9.5C8.74999 9.91421 9.08578 10.25 9.49999 10.25C9.9142 10.25 10.25 9.91421 10.25 9.5L8.74999 9.5ZM16.25 9.5C16.25 13.2279 13.2279 16.25 9.5 16.25V17.75C14.0563 17.75 17.75 14.0563 17.75 9.5H16.25ZM2.75 9.5C2.75 5.77208 5.77208 2.75 9.5 2.75V1.25C4.94365 1.25 1.25 4.94365 1.25 9.5H2.75ZM9.5 2.75C13.2279 2.75 16.25 5.77208 16.25 9.5H17.75C17.75 4.94365 14.0563 1.25 9.5 1.25V2.75ZM3.72962 13.0043C3.10814 11.9833 2.75 10.7846 2.75 9.5H1.25C1.25 11.0675 1.68786 12.5349 2.44834 13.7842L3.72962 13.0043ZM9.5 16.25C8.40005 16.25 7.36359 15.9875 6.44782 15.5223L5.76853 16.8597C6.88993 17.4293 8.1586 17.75 9.5 17.75V16.25ZM5.94409 15.4592L2.33592 16.2682L2.66408 17.7318L6.27226 16.9228L5.94409 15.4592ZM3.24019 17.1209L3.82917 13.5152L2.34879 13.2733L1.75981 16.8791L3.24019 17.1209ZM21.7695 19.5054C22.3917 18.4831 22.75 17.2823 22.75 16H21.25C21.25 16.9994 20.9715 17.9315 20.4882 18.7254L21.7695 19.5054ZM16 22.75C17.0973 22.75 18.1354 22.4876 19.0531 22.0215L18.3738 20.6841C17.6618 21.0458 16.8558 21.25 16 21.25V22.75ZM18.5494 22.0846L21.4359 22.7318L21.7641 21.2682L18.8775 20.621L18.5494 22.0846ZM22.3402 21.8791L21.869 18.9945L20.3886 19.2363L20.8598 22.1209L22.3402 21.8791ZM22.75 16C22.75 12.6062 20.2461 9.79855 16.9847 9.3214L16.7675 10.8056C19.303 11.1765 21.25 13.3616 21.25 16H22.75ZM9.3433 17.1241C9.87898 20.3171 12.6546 22.75 16 22.75V21.25C13.3994 21.25 11.2391 19.3583 10.8226 16.8759L9.3433 17.1241ZM8.96966 13.0303L9.21965 13.2803L10.2803 12.2197L10.0303 11.9697L8.96966 13.0303ZM9.21965 12.2197L8.96966 12.4697L10.0303 13.5303L10.2803 13.2803L9.21965 12.2197ZM10.0303 12.4697L9.78031 12.2197L8.71966 13.2803L8.96967 13.5303L10.0303 12.4697ZM9.78031 13.2803L10.0303 13.0303L8.96967 11.9697L8.71966 12.2197L9.78031 13.2803ZM8.75 6L8.74999 9.5L10.25 9.5L10.25 6L8.75 6Z" fill="#333839"/>
</svg>
