<svg width="24" height="24" viewBox="0 0 24 24" fill="none" xmlns="http://www.w3.org/2000/svg">
<path d="M15.9999 7C15.9999 9.20914 14.209 11 11.9999 11C9.79077 11 7.99991 9.20914 7.99991 7C7.99991 4.79086 9.79077 3 11.9999 3C14.209 3 15.9999 4.79086 15.9999 7Z" stroke="#333839" stroke-width="1.5"/>
<path d="M4.76788 15.7616C5.72829 12.9159 8.39696 11 11.4003 11H12.5995C15.6028 11 18.2715 12.9159 19.2319 15.7615L20.1091 18.3604C20.5466 19.6569 19.5823 21 18.2141 21H5.78574C4.41747 21 3.45321 19.6569 3.89076 18.3604L4.76788 15.7616Z" stroke="#333839" stroke-width="1.5"/>
</svg>
